<?xml version="1.0" encoding="UTF-8"?>
<svg version="1.1" xmlns="http://www.w3.org/2000/svg" width="1080" height="1080">
<path d="M0 0 C356.4 0 712.8 0 1080 0 C1080 356.4 1080 712.8 1080 1080 C723.6 1080 367.2 1080 0 1080 C0 723.6 0 367.2 0 0 Z " fill="#1A1967" transform="translate(0,0)"/>
<path d="M0 0 C1.54494141 0.32000977 1.54494141 0.32000977 3.12109375 0.64648438 C15.20074402 3.21743916 25.84408156 7.21139367 36.875 12.6875 C37.85984375 13.17347656 38.8446875 13.65945313 39.859375 14.16015625 C66.29698671 27.87562244 86.27791202 51.55679613 95.55517578 79.75488281 C103.75391511 106.7735986 98.52689385 135.96087514 85.65234375 160.62890625 C70.79267659 186.20059721 48.5398859 203.80436258 22.875 217.6875 C22.10913574 218.10660645 21.34327148 218.52571289 20.55419922 218.95751953 C18.22787463 220.22969086 15.89635115 221.49169771 13.5625 222.75 C12.83901367 223.14445313 12.11552734 223.53890625 11.37011719 223.9453125 C6.22237273 226.6875 6.22237273 226.6875 2.875 226.6875 C8.33063383 233.65185232 13.99328494 239.94144311 20.30859375 246.125 C23.09033129 248.90250354 25.64942263 251.80502151 28.19921875 254.79296875 C30.64032539 257.552728 33.277906 260.09960976 35.90234375 262.68359375 C38.44837829 265.26996151 40.79521557 268.0028528 43.16015625 270.75390625 C44.83504299 272.64244597 46.57447587 274.41905648 48.375 276.1875 C50.68575448 278.45762583 52.84401642 280.77874494 54.9375 283.25 C58.92185687 287.88486412 63.27223496 292.13955279 67.63696289 296.41235352 C70.59438333 299.32656961 73.42555413 302.28171923 76.125 305.4375 C80.75405372 310.80017608 85.83404771 315.71749945 90.875 320.6875 C92.79475944 322.5802387 94.71087254 324.47656758 96.625 326.375 C97.46546875 327.20386719 98.3059375 328.03273438 99.171875 328.88671875 C101.20971343 330.99817851 103.12773853 333.12018912 105.03540039 335.34350586 C109.63023407 340.63823698 114.59806934 345.55502535 119.55859375 350.50390625 C120.58332108 351.52930924 121.60790011 352.55486046 122.63233948 353.58055115 C124.7680043 355.71768063 126.90544208 357.85301609 129.04418945 359.98706055 C131.76508416 362.70225875 134.4814631 365.42192333 137.19651699 368.14296055 C139.30783814 370.25792075 141.42156675 372.37046207 143.53599739 374.48231316 C144.53771091 375.48336663 145.53870177 376.48514385 146.538908 377.48770332 C152.14689711 383.10599327 157.82611109 388.54615589 163.875 393.6875 C164.70386719 394.42097656 165.53273438 395.15445312 166.38671875 395.91015625 C179.06490879 406.63085196 192.48650246 410.08243251 208.75 409.9375 C209.80123047 409.93363281 210.85246094 409.92976563 211.93554688 409.92578125 C219.08848903 409.8459592 225.90395954 409.39968538 232.875 407.6875 C230.59122719 410.12568674 228.16509858 411.96753805 225.40234375 413.83984375 C224.5117627 414.44562256 223.62118164 415.05140137 222.70361328 415.67553711 C221.7495459 416.31885986 220.79547852 416.96218262 219.8125 417.625 C218.82749512 418.29088135 217.84249023 418.9567627 216.82763672 419.64282227 C214.80865575 421.0066685 212.78879722 422.3692165 210.76806641 423.73046875 C208.16189507 425.49342819 205.5688782 427.27361789 202.98046875 429.0625 C185.78673077 440.87164986 167.5629332 452.03150151 145.875 449.6875 C141.96961309 448.76071402 138.48826185 447.42277899 134.875 445.6875 C134.13121094 445.336875 133.38742187 444.98625 132.62109375 444.625 C122.09887363 439.20389196 113.19684465 431.30193172 104.62890625 423.25390625 C102.31956745 421.10179903 99.97170367 419.0378428 97.5625 417 C94.40358647 414.25367926 91.6927074 411.31045148 88.98828125 408.12109375 C86.19416326 404.90346804 83.28491307 401.80024883 80.375 398.6875 C76.35930306 394.38314831 72.38770242 390.05688457 68.5390625 385.6015625 C65.04208561 381.57921819 61.44703589 377.64311021 57.875 373.6875 C53.10466063 368.40490942 48.35605593 363.10815865 43.6796875 357.7421875 C40.11860802 353.68779831 36.4908775 349.692967 32.875 345.6875 C31.37471321 344.02109149 29.87471128 342.35442647 28.375 340.6875 C27.6325 339.8625 26.89 339.0375 26.125 338.1875 C23.875 335.6875 21.625 333.1875 19.375 330.6875 C18.62992188 329.85992188 17.88484375 329.03234375 17.1171875 328.1796875 C15.64207382 326.54010121 14.16808348 324.89950345 12.6953125 323.2578125 C7.31082252 317.26014216 1.89472905 311.29220647 -3.57226562 305.36962891 C-4.62933728 304.22446794 -5.68528379 303.07826759 -6.74023438 301.93115234 C-14.65909804 293.3339888 -22.74579598 284.89988907 -30.9375 276.5625 C-31.79649902 275.67377197 -32.65549805 274.78504395 -33.54052734 273.86938477 C-41.00128448 266.34054195 -48.63965477 261.11160945 -58.75 257.875 C-59.38881104 257.66979736 -60.02762207 257.46459473 -60.68579102 257.25317383 C-65.17917005 255.85595753 -69.43726581 254.97450413 -74.125 254.6875 C-71.27483746 251.65753749 -68.36423478 249.38130685 -64.875 247.125 C-59.9007567 243.86349981 -54.96677358 240.55334863 -50.0625 237.1875 C-49.03249878 236.48850586 -49.03249878 236.48850586 -47.98168945 235.77539062 C-44.94586274 233.70147103 -42.03284419 231.61188812 -39.1875 229.27734375 C-32.84407263 224.07611089 -27.97007591 222.81933048 -19.83203125 222.09375 C-5.32833592 220.50430394 6.75846539 212.78665225 16.875 202.6875 C17.50148438 202.07261719 18.12796875 201.45773437 18.7734375 200.82421875 C36.42261414 182.17678552 43.03564298 153.73938508 43.17016602 128.90478516 C43.18161081 127.44081906 43.20194195 125.97689217 43.23168945 124.51318359 C43.62103628 105.28945604 38.24986198 89.57609166 25.57421875 74.80859375 C23.875 72.6875 23.875 72.6875 22.89453125 70.53515625 C21.58508817 68.16210424 20.30424936 67.80800247 17.875 66.6875 C16.55454591 65.51069364 15.26537797 64.29833608 14 63.0625 C8.23583995 57.83784262 1.69995016 54.29867616 -5.125 50.6875 C-6.64673828 49.86572266 -6.64673828 49.86572266 -8.19921875 49.02734375 C-14.52454301 45.72533869 -20.95312135 43.16874024 -27.703125 40.86328125 C-30.07022511 40.04992836 -32.41647019 39.17420662 -34.74243164 38.24975586 C-50.39633559 32.38841794 -66.95024076 32.14620081 -83.4375 32.4375 C-85.46157041 32.45764162 -87.4856607 32.47587854 -89.50976562 32.4921875 C-94.38198636 32.53200949 -99.25331687 32.60687513 -104.125 32.6875 C-104.12155579 33.9749411 -104.11811157 35.2623822 -104.11456299 36.58883667 C-104.09182542 48.85705062 -104.19712841 61.11682367 -104.421875 73.3828125 C-104.43828285 74.30458471 -104.4546907 75.22635693 -104.47159576 76.17606163 C-104.60001458 83.38832591 -104.73633866 90.60042619 -104.875 97.8125 C-104.895625 98.89387112 -104.91625 99.97524223 -104.9375 101.08938217 C-105.715963 141.77684582 -106.7652642 182.45525055 -107.92889142 223.13324046 C-108.05877554 227.67377241 -108.18763816 232.21433147 -108.31550729 236.7549206 C-109.20145251 268.20297771 -110.13709689 299.64120894 -111.78613472 331.06052303 C-112.28286569 340.57647216 -112.69709887 350.09662703 -113.09674072 359.6171093 C-113.83034107 376.94185276 -117.41878435 393.49181081 -127.296875 408.046875 C-128.01456055 409.10874023 -128.73224609 410.17060547 -129.47167969 411.26464844 C-130.01727539 412.06418945 -130.56287109 412.86373047 -131.125 413.6875 C-122.38758253 413.71084467 -113.65017608 413.72852639 -104.91273403 413.73931217 C-100.8540021 413.7444932 -96.79529177 413.75150209 -92.73657227 413.76293945 C-88.80728511 413.77394064 -84.87801851 413.77981265 -80.94871712 413.78237724 C-79.46229797 413.78420088 -77.97587973 413.78776045 -76.48946953 413.79323006 C-66.65368319 413.82792757 -56.93237653 413.46986572 -47.125 412.6875 C-49.21667376 414.77917376 -50.85246069 415.64042349 -53.5078125 416.90234375 C-54.41539307 417.33571045 -55.32297363 417.76907715 -56.25805664 418.21557617 C-57.24539795 418.68068604 -58.23273926 419.1457959 -59.25 419.625 C-60.27536865 420.11009033 -61.3007373 420.59518066 -62.35717773 421.0949707 C-64.52355373 422.11726285 -66.69114748 423.13697785 -68.85986328 424.15429688 C-70.97746637 425.14865514 -73.09315336 426.14710822 -75.20654297 427.15039062 C-102.6741376 440.18646378 -128.27692196 449.9164931 -158.984375 449.78515625 C-160.25476624 449.7837413 -161.52515747 449.78232635 -162.83404541 449.78086853 C-166.16791801 449.77626005 -169.50171847 449.76731826 -172.83557129 449.75616455 C-176.25495795 449.74582882 -179.67435214 449.74134519 -183.09375 449.73632812 C-189.77085278 449.72536793 -196.44792224 449.70868228 -203.125 449.6875 C-198.39180958 445.84416399 -193.46291223 442.38371336 -188.4375 438.9375 C-187.57060547 438.33550781 -186.70371094 437.73351562 -185.81054688 437.11328125 C-184.56821289 436.26056641 -184.56821289 436.26056641 -183.30078125 435.390625 C-182.54708252 434.87145508 -181.79338379 434.35228516 -181.0168457 433.81738281 C-179.125 432.6875 -179.125 432.6875 -177.125 432.6875 C-173.33755104 413.78172363 -169.92690882 394.95035317 -168.13671875 375.7421875 C-168.05147949 374.83283951 -167.96624023 373.92349152 -167.87841797 372.98658752 C-159.19373149 279.20448776 -160.70521607 184.18555383 -159.125 35.6875 C-161.06113159 35.88448486 -161.06113159 35.88448486 -163.03637695 36.08544922 C-172.78919013 37.07268726 -182.54056365 38.031769 -192.3125 38.8125 C-193.33923828 38.89886719 -194.36597656 38.98523438 -195.42382812 39.07421875 C-201.34726877 39.55112196 -207.18254105 39.77389089 -213.125 39.6875 C-209.61852506 36.75831548 -206.05583029 34.35460663 -202.1015625 32.0703125 C-201.5289267 31.73619354 -200.95629089 31.40207458 -200.36630249 31.05783081 C-197.17584144 29.19887817 -193.96954731 27.36967928 -190.75390625 25.5546875 C-184.82681329 22.18524585 -179.1744388 18.92799587 -173.9609375 14.4921875 C-159.05373369 2.32944439 -143.52747669 3.55857881 -125.14672852 3.75219727 C-104.36706396 3.95567619 -84.19556098 2.13306831 -63.58740234 -0.23242188 C-42.66743777 -2.58297084 -20.72305662 -4.853924 0 0 Z " fill="#FDFDFE" transform="translate(343.125,329.3125)"/>
<path d="M0 0 C-15.06853893 10.61005737 -30.94894358 20.82580319 -48.56054688 26.60839844 C-58.44768305 29.88325156 -62.25723834 33.99915974 -66.98144531 43.13720703 C-68.69395946 46.26915405 -70.77542959 49.11892057 -72.875 52 C-73.29015869 52.57621094 -73.70531738 53.15242188 -74.13305664 53.74609375 C-81.79899358 64.31532552 -90.04162953 74.41769426 -98.55224609 84.31396484 C-100.04703788 86.0547797 -101.53336409 87.80260059 -103.01953125 89.55078125 C-112.59265173 100.75891857 -122.55038375 111.64762137 -133.04296875 122.00390625 C-136.26898157 125.20800003 -139.26013999 128.55284557 -142.22705078 131.99560547 C-145.32041229 135.49278228 -148.6275827 138.77173362 -151.9375 142.0625 C-152.60201172 142.73087891 -153.26652344 143.39925781 -153.95117188 144.08789062 C-157.09793307 147.22854753 -160.27322069 150.27161509 -163.66015625 153.15234375 C-169.94356666 158.5744241 -175.66871501 164.60228866 -181.5 170.5 C-195.18470743 184.34059507 -195.18470743 184.34059507 -201.37695312 189.60400391 C-203.70040606 191.60242506 -205.85073884 193.75465663 -208 195.9375 C-208.763125 196.70964844 -209.52625 197.48179687 -210.3125 198.27734375 C-211.1478125 199.13005859 -211.1478125 199.13005859 -212 200 C-210.36106612 205.17288506 -207.18840459 209.13185734 -204 213.4375 C-202.81083756 215.06223631 -201.62203868 216.68723878 -200.43359375 218.3125 C-199.84690918 219.11171875 -199.26022461 219.9109375 -198.65576172 220.734375 C-196.42877847 223.78161837 -194.24461632 226.85807767 -192.0625 229.9375 C-175.18101308 253.62905352 -157.76706411 277.24429788 -138.0625 298.6875 C-135.83953021 301.17992068 -133.76641796 303.76150314 -131.6875 306.375 C-127.8748498 311.09574202 -123.78143895 315.37841526 -119.42456055 319.58935547 C-116.69042998 322.2447289 -114.11947316 324.97268567 -111.62890625 327.859375 C-107.95029557 332.1122644 -104.04887765 336.09918721 -100.0625 340.0625 C-99.39798828 340.73087891 -98.73347656 341.39925781 -98.04882812 342.08789062 C-93.53037991 346.59757366 -88.83673746 350.83629764 -84 355 C-82.92834555 355.94900761 -81.85795584 356.89944605 -80.7890625 357.8515625 C-57.46348156 378.409888 -28.62715038 398.65927155 2 406 C3.04027344 406.29390625 4.08054687 406.5878125 5.15234375 406.890625 C21.73583418 411.14776373 37.79708312 409.72923556 53.97949219 404.63378906 C56.96973758 403.69581455 59.98411914 402.85144921 63 402 C58.79742197 407.00705315 54.4372515 411.75623679 49.8125 416.375 C48.82793823 417.35835327 48.82793823 417.35835327 47.82348633 418.36157227 C42.48392419 423.63475594 36.9186012 428.38239164 31 433 C30.22914063 433.6496875 29.45828125 434.299375 28.6640625 434.96875 C16.34089093 445.28582387 -1.20470763 458.46218133 -17.9609375 457.4453125 C-49.12912966 452.87825092 -78.99661636 431.11013187 -103 412 C-103.59651367 411.52530273 -104.19302734 411.05060547 -104.80761719 410.56152344 C-112.09620658 404.74296251 -119.28777786 398.81224322 -126.375 392.75 C-127.15786377 392.08037231 -127.15786377 392.08037231 -127.95654297 391.3972168 C-129.64626042 389.94102683 -131.32431286 388.47231507 -133 387 C-134.05006226 386.08456421 -134.05006226 386.08456421 -135.12133789 385.15063477 C-142.27264746 378.82716262 -149.02393748 372.12876978 -155.76000977 365.37036133 C-157.69109547 363.43389451 -159.62749882 361.50286044 -161.56445312 359.57226562 C-167.59084954 353.54911233 -173.48929263 347.50455508 -179 341 C-180.61967817 339.22429779 -182.24411718 337.45291693 -183.875 335.6875 C-188.01803222 331.14959482 -191.92380414 326.46855965 -195.78125 321.6875 C-197.97275268 319.0330038 -200.24247683 316.47999115 -202.5625 313.9375 C-206.11642208 310.0287974 -209.4602216 306.01398717 -212.7265625 301.86328125 C-214.43103659 299.71658107 -216.15257011 297.59302479 -217.8984375 295.48046875 C-225.69455583 286.02989965 -233.06415731 276.32463385 -240.25488281 266.40673828 C-241.99576366 264.00584245 -243.74351267 261.61006679 -245.4921875 259.21484375 C-248.20396613 255.49321207 -250.89402327 251.75684867 -253.56640625 248.00683594 C-254.49117182 246.71229013 -255.42053329 245.42100928 -256.35546875 244.13378906 C-257.54327325 242.49553254 -258.70995802 240.84202143 -259.875 239.1875 C-260.51179687 238.29417969 -261.14859375 237.40085937 -261.8046875 236.48046875 C-263.29418171 233.38952488 -262.94443524 232.24697635 -262 229 C-260.76000977 227.078125 -260.76000977 227.078125 -259.19140625 225.25 C-258.61438965 224.56566895 -258.03737305 223.88133789 -257.44287109 223.17626953 C-256.82234863 222.45810059 -256.20182617 221.73993164 -255.5625 221 C-254.2727506 219.47824602 -252.98500312 217.95479315 -251.69921875 216.4296875 C-251.0654834 215.67913086 -250.43174805 214.92857422 -249.77880859 214.15527344 C-247.78222301 211.73613295 -245.90674268 209.25003238 -244.05004883 206.72314453 C-238.75298465 199.51878506 -232.73643745 193.80082114 -226 188 C-224.62485242 186.79183462 -223.24983339 185.5835229 -221.875 184.375 C-220.94107422 183.56289063 -220.94107422 183.56289063 -219.98828125 182.734375 C-213.57385055 177.13907592 -207.324654 171.44954424 -201.3984375 165.3359375 C-199.41193137 163.401197 -197.39239249 161.59294282 -195.29296875 159.78515625 C-190.63775352 155.7429824 -186.28439341 151.431515 -181.9375 147.0625 C-181.17373047 146.30259766 -180.40996094 145.54269531 -179.62304688 144.75976562 C-175.49648751 140.62614628 -171.54576776 136.40664819 -167.7355957 131.98071289 C-164.64046045 128.44845345 -161.36773796 125.08365026 -158.125 121.6875 C-152.89016593 116.16480093 -147.85066833 110.60790789 -143.12109375 104.64453125 C-141.17770261 102.22155555 -139.16696592 99.87203818 -137.12817383 97.52929688 C-121.55279938 79.53967041 -108.14681462 59.51450267 -98 38 C-97.67 37.34 -97.34 36.68 -97 36 C-102.44066482 36.52904978 -107.88089897 37.06228241 -113.32080078 37.59912109 C-115.16509353 37.78056379 -117.00949226 37.96093296 -118.85400391 38.14013672 C-128.66956075 39.09450102 -138.4392333 40.09697445 -148.18310547 41.63720703 C-150.82740691 41.97777142 -153.33787465 42.06791448 -156 42 C-146.50576252 32.1541241 -135.31787772 25.35164538 -123.25 19.0625 C-121.68910645 18.24749023 -121.68910645 18.24749023 -120.09667969 17.41601562 C-108.07604009 11.29711002 -96.27094197 6.86770199 -82.71875 6.47265625 C-80.90339616 6.40379166 -79.08804807 6.33477514 -77.27270508 6.265625 C-75.85871933 6.21631836 -75.85871933 6.21631836 -74.41616821 6.16601562 C-59.5164243 5.63711736 -44.65622452 4.9127808 -29.8125 3.5 C-27.894375 3.32223022 -27.894375 3.32223022 -25.9375 3.14086914 C-18.78769212 2.42772809 -11.83317811 1.46505173 -4.94458008 -0.62304688 C-3 -1 -3 -1 0 0 Z " fill="#FDFDFE" transform="translate(935,324)"/>
<path d="M0 0 C-20.33809275 12.71640268 -20.33809275 12.71640268 -28.625 17.5 C-29.60726562 18.0671875 -30.58953125 18.634375 -31.6015625 19.21875 C-34.60522136 20.79308154 -37.62320478 22.21578334 -40.71240234 23.61132812 C-42.19781021 24.28331238 -42.19781021 24.28331238 -43.71322632 24.96887207 C-44.46786163 25.30914429 -45.22249695 25.6494165 -46 26 C-48.12367965 97.71662099 -50.13082342 169.43353878 -51.64096785 241.16600609 C-51.68708903 243.3554902 -51.73335838 245.54497114 -51.7796669 247.73445129 C-51.97096722 256.78534377 -52.15945234 265.83629136 -52.34533572 274.88729668 C-52.38642628 276.88422416 -52.4278093 278.88114562 -52.46919441 280.87806702 C-52.76516833 295.20765938 -53.0300653 309.53693482 -53.23291016 323.86816406 C-53.28997914 327.68779634 -53.34752955 331.50742115 -53.40513039 335.32704544 C-53.45518408 338.84667488 -53.49565405 342.36632139 -53.53556824 345.88607788 C-53.96230898 377.30232794 -53.96230898 377.30232794 -58.6875 390.1875 C-58.94805176 390.92742187 -59.20860352 391.66734375 -59.47705078 392.4296875 C-63.70220036 404.07076352 -69.10283706 413.46541748 -77 423 C-71.79371465 423.05039966 -66.58757906 423.0861781 -61.38110352 423.10986328 C-59.61935953 423.11976341 -57.85763123 423.13328696 -56.09594727 423.15087891 C-43.5886023 423.27241355 -31.40738902 422.58028593 -19 421 C-17.10991211 420.76591431 -17.10991211 420.76591431 -15.18164062 420.52709961 C-8.57234771 419.67507195 -2.60354022 418.04609521 3.63671875 415.70703125 C6 415 6 415 8 416 C7.51869629 416.32572998 7.03739258 416.65145996 6.54150391 416.98706055 C4.23408721 418.55107331 1.92912187 420.11863698 -0.375 421.6875 C-1.6592688 422.56184692 -1.6592688 422.56184692 -2.96948242 423.45385742 C-8.06499728 426.94021308 -13.09171711 430.50068199 -18.06469727 434.15942383 C-26.10273731 440.07074881 -34.14533848 445.38112835 -43 450 C-44.39412109 450.75410156 -44.39412109 450.75410156 -45.81640625 451.5234375 C-60.26875126 458.80220224 -80.47775596 458.94313927 -96.25048828 456.49560547 C-100.74947013 455.90093604 -105.12102671 455.87517106 -109.65234375 455.90234375 C-110.55247696 455.9037587 -111.45261017 455.90517365 -112.38002014 455.90663147 C-115.23254837 455.9121934 -118.08499581 455.92473873 -120.9375 455.9375 C-122.88085824 455.94251992 -124.82421771 455.94708197 -126.76757812 455.95117188 C-131.5117495 455.96215034 -136.25586109 455.97938847 -141 456 C-140.04411227 454.87340207 -139.08660665 453.74817674 -138.12841797 452.62353516 C-137.59538055 451.99677887 -137.06234314 451.37002258 -136.51315308 450.72427368 C-134.82708211 448.80295597 -133.01892113 447.09009596 -131.125 445.375 C-108.55929353 422.93848651 -104.98504372 384.74477842 -104.84474558 354.71098822 C-104.84376747 353.46873317 -104.84278936 352.22647812 -104.84178162 350.94657898 C-104.83720276 349.57829851 -104.83220086 348.2100194 -104.82681805 346.84174186 C-104.81337799 343.11999859 -104.80586018 339.39826433 -104.79939139 335.6765033 C-104.79132448 331.64873536 -104.77764878 327.6209858 -104.76467896 323.5932312 C-104.74300466 316.62751027 -104.7248275 309.66178739 -104.70907402 302.69605064 C-104.68629243 292.62495543 -104.65816146 282.55388064 -104.62875474 272.48280285 C-104.58117997 256.14031837 -104.53788862 239.79782551 -104.49731445 223.45532227 C-104.45790789 207.58682605 -104.41646943 191.71833726 -104.37231445 175.84985352 C-104.36959018 174.87054738 -104.36686591 173.89124124 -104.36405908 172.88225915 C-104.35037875 167.96901786 -104.33665865 163.05577669 -104.32291877 158.14253557 C-104.20911303 117.42837257 -104.10226879 76.71419351 -104 36 C-105.25022949 36.14622803 -106.50045898 36.29245605 -107.78857422 36.44311523 C-112.46637404 36.99001171 -117.1443011 37.53581313 -121.82226562 38.08129883 C-123.83955263 38.31668125 -125.8568059 38.55235307 -127.87402344 38.78833008 C-130.7883212 39.12919626 -133.7027423 39.46899082 -136.6171875 39.80859375 C-137.50614716 39.91280136 -138.39510681 40.01700897 -139.31100464 40.12437439 C-145.20187266 40.80944325 -151.09717591 41.42715355 -157 42 C-142.55659719 26.69222366 -121.84401993 16.2752569 -102 10 C-101.35983948 9.75773682 -100.71967896 9.51547363 -100.06011963 9.26586914 C-94.32885799 7.15698664 -89.16441544 6.49378033 -83.0859375 6.33984375 C-82.16155884 6.30521027 -81.23718018 6.27057678 -80.28479004 6.2348938 C-78.32398743 6.16233316 -76.36296984 6.09538993 -74.40179443 6.03372192 C-69.31881858 5.87213391 -64.23770493 5.66409816 -59.15625 5.4609375 C-58.16978485 5.42249222 -57.1833197 5.38404694 -56.16696167 5.34443665 C-41.30744097 4.75334827 -13.06367824 -4.35455941 0 0 Z " fill="#FDFDFE" transform="translate(715,324)"/>
</svg>
